<svg xmlns="http://www.w3.org/2000/svg" xmlns:xlink="http://www.w3.org/1999/xlink" width="500" zoomAndPan="magnify" viewBox="0 0 375 374.999991" height="500" preserveAspectRatio="xMidYMid meet" version="1.0"><defs><clipPath id="3f6e1d74cd"><path d="M 53.855469 41.375 L 273 41.375 L 273 264 L 53.855469 264 Z M 53.855469 41.375 " clip-rule="nonzero"/></clipPath><clipPath id="49c5be3460"><path d="M 97 41.375 L 319 41.375 L 319 261 L 97 261 Z M 97 41.375 " clip-rule="nonzero"/></clipPath></defs><g clip-path="url(#3f6e1d74cd)"><path fill="#253447" d="M 97.316406 129.101562 C 97.3125 145.101562 101.65625 160.027344 109.144531 172.929688 L 75.761719 172.933594 C 63.675781 172.949219 53.859375 182.761719 53.855469 194.851562 C 53.859375 200.898438 56.324219 206.386719 60.289062 210.347656 L 106.675781 256.734375 C 115.226562 265.285156 129.109375 265.296875 137.667969 256.734375 C 146.226562 248.171875 146.214844 234.292969 137.667969 225.746094 L 128.679688 216.757812 L 184.964844 216.753906 C 233.367188 216.769531 272.625 177.515625 272.605469 129.113281 C 272.625 80.691406 233.378906 41.445312 184.957031 41.460938 C 136.554688 41.445312 97.300781 80.699219 97.316406 129.101562 Z M 184.957031 85.277344 C 209.160156 85.289062 228.789062 104.914062 228.789062 129.105469 C 228.792969 153.308594 209.164062 172.933594 184.964844 172.929688 C 160.757812 172.945312 141.125 153.316406 141.136719 129.101562 C 141.140625 104.910156 160.769531 85.28125 184.957031 85.277344 Z M 184.957031 85.277344 " fill-opacity="1" fill-rule="evenodd"/></g><g clip-path="url(#49c5be3460)"><path fill="#ffbd59" d="M 184.953125 216.761719 C 200.953125 216.769531 215.878906 212.425781 228.78125 204.9375 L 228.789062 238.320312 C 228.796875 250.410156 238.609375 260.21875 250.699219 260.230469 C 256.742188 260.226562 262.234375 257.761719 266.195312 253.796875 L 312.582031 207.410156 C 321.132812 198.859375 321.140625 184.976562 312.582031 176.421875 C 304.019531 167.859375 290.140625 167.871094 281.589844 176.421875 L 272.605469 185.40625 L 272.601562 129.121094 C 272.621094 80.707031 233.367188 41.449219 184.964844 41.46875 C 136.546875 41.453125 97.296875 80.703125 97.3125 129.121094 C 97.296875 177.523438 136.550781 216.78125 184.953125 216.761719 Z M 141.128906 129.121094 C 141.140625 104.921875 160.769531 85.292969 184.957031 85.292969 C 209.160156 85.289062 228.789062 104.914062 228.78125 129.117188 C 228.796875 153.324219 209.171875 172.957031 184.953125 172.945312 C 160.761719 172.941406 141.136719 153.3125 141.128906 129.121094 Z M 202.96875 129.105469 C 202.96875 139.046875 194.910156 147.105469 184.96875 147.105469 C 175.03125 147.105469 166.96875 139.046875 166.96875 129.105469 C 166.96875 119.164062 175.03125 111.105469 184.96875 111.105469 C 194.910156 111.105469 202.96875 119.164062 202.96875 129.105469 Z M 202.96875 129.105469 " fill-opacity="1" fill-rule="evenodd"/></g></svg>